<svg xmlns="http://www.w3.org/2000/svg" xmlns:xlink="http://www.w3.org/1999/xlink" width="830" height="261" version="1.1" viewBox="0 0 830 261"><title>karma logo</title><desc>Created with Sketch.</desc><g id="karma-logo" fill="none" fill-rule="evenodd" stroke="none" stroke-width="1"><g id="Group-35" fill="#E42313" transform="translate(47.000000, 49.000000)"><polygon id="Fill-2" points="16.387 1 16.387 43.832 35.531 1 52.566 1 33.909 38.217 55 108 37.64 108 23.85 58.27 16.387 73.028 16.387 108 0 108 0 1"/><path id="Fill-3" d="M96.5892557,84.4182998 L92.8964203,108 L77,108 L94.5023917,1 L115.375526,1 L134,108 L117.46239,108 L113.769554,84.4182998 L96.5892557,84.4182998 Z M104.93821,26.6682054 L98.8364172,69.3382853 L111.360597,69.3382853 L104.93821,26.6682054 Z"/><g id="Group-34" transform="translate(160.000000, 0.000000)"><path id="Fill-4" d="M16.5544827,108.05715 L0.288645026,108.05715 L0.288645026,0.82665 L22.8354251,0.82665 C32.2808806,0.82665 39.1268073,3.31815 43.3686974,8.30265 C47.6090848,13.28565 49.7292785,21.13815 49.7292785,31.85415 C49.7292785,38.82165 48.9148597,44.34165 47.2890272,48.41265 C45.6616921,52.48815 42.8397759,55.96815 38.8262838,58.86315 L51.3400848,108.05715 L34.1080639,108.05715 L24.1457079,63.20565 L16.5544827,63.20565 L16.5544827,108.05715 Z M21.6122942,48.41265 C24.3500639,48.41265 26.3530534,48.17115 27.616755,47.68965 C28.8789539,47.20815 29.9337916,46.27215 30.7767602,44.87565 C31.6197288,43.59015 32.2778754,41.82165 32.7527026,39.57165 C33.2260272,37.32015 33.4649435,34.85565 33.4649435,32.17665 C33.4649435,29.17665 33.171933,26.46915 32.5934251,24.05715 C32.0149173,21.64665 31.2500848,19.85265 30.3034356,18.67215 C29.4574618,17.60115 28.4041267,16.87815 27.1404251,16.50015 C25.8767236,16.12665 24.0330115,15.93915 21.6122942,15.93915 L16.5544827,15.93915 L16.5544827,48.41265 L21.6122942,48.41265 Z"/><polygon id="Fill-6" points="132.828 108.057 132.828 33.944 117.496 108.057 110.31 108.057 94.178 33.944 94.178 108.057 79.039 108.057 79.039 .827 100.62 .827 113.986 66.098 126.226 .827 147.967 .827 147.967 108.057"/><path id="Fill-8" d="M195.15323,84.4248 L191.449277,108.0573 L175.505,108.0573 L193.060084,0.8268 L213.996058,0.8268 L232.676602,108.0573 L216.089204,108.0573 L212.385251,84.4248 L195.15323,84.4248 Z M203.527319,26.5503 L197.407157,69.3123 L209.967539,69.3123 L203.527319,26.5503 Z"/><path id="Fill-10" d="M275.998125,108.05715 L259.732287,108.05715 L259.732287,0.82665 L282.279068,0.82665 C291.726026,0.82665 298.568947,3.31815 302.81234,8.30265 C307.052727,13.28565 309.172921,21.13815 309.172921,31.85415 C309.172921,38.82165 308.356999,44.34165 306.731167,48.41265 C305.105335,52.48815 302.281916,55.96815 298.269926,58.86315 L310.782225,108.05715 L293.551706,108.05715 L283.58935,63.20565 L275.998125,63.20565 L275.998125,108.05715 Z M281.054434,48.41265 C283.792204,48.41265 285.796696,48.17115 287.058895,47.68965 C288.321094,47.20815 289.375931,46.27215 290.220403,44.87565 C291.061869,43.59015 291.72302,41.82165 292.194842,39.57165 C292.66967,37.32015 292.907083,34.85565 292.907083,32.17665 C292.907083,29.17665 292.615575,26.46915 292.037068,24.05715 C291.45856,21.64665 290.692225,19.85265 289.745575,18.67215 C288.901104,17.60115 287.847769,16.87815 286.584068,16.50015 C285.318863,16.12665 283.476654,15.93915 281.054434,15.93915 L275.998125,15.93915 L275.998125,48.41265 L281.054434,48.41265 Z"/><path id="Fill-12" d="M354.483609,84.4248 L350.779657,108.0573 L334.836882,108.0573 L352.38896,0.8268 L373.324934,0.8268 L392.006981,108.0573 L375.419583,108.0573 L371.71563,84.4248 L354.483609,84.4248 Z M362.856196,26.5503 L356.737536,69.3123 L369.297918,69.3123 L362.856196,26.5503 Z"/><polygon id="Fill-14" points="472.853 108.057 472.853 33.944 457.52 108.057 450.335 108.057 434.2 33.944 434.2 108.057 419.064 108.057 419.064 .827 440.643 .827 454.012 66.098 466.249 .827 487.99 .827 487.99 108.057"/><path id="Fill-16" d="M535.177758,84.4248 L531.472302,108.0573 L515.53103,108.0573 L533.083108,0.8268 L554.019082,0.8268 L572.701129,108.0573 L556.113731,108.0573 L552.409779,84.4248 L535.177758,84.4248 Z M543.550344,26.5503 L537.431684,69.3123 L549.992066,69.3123 L543.550344,26.5503 Z"/><path id="Fill-18" d="M77.5491953,175.5498 L77.1299649,172.5453 C75.8332058,174.4218 73.0308236,176.1753 68.8099702,176.1753 C60.574122,176.1753 53.7988183,170.1228 53.7988183,160.7733 C53.7988183,151.4673 60.8671325,145.3308 69.2292005,145.3308 C77.7159859,145.3308 81.6438288,150.3393 82.9420906,154.4718 L76.5860173,156.6843 C76.1262162,154.8498 74.1622948,151.5078 69.2292005,151.5078 C65.2142058,151.5078 60.4884728,154.1793 60.4884728,160.7733 C60.4884728,166.9518 64.5891168,170.1663 69.3944885,170.1663 C74.287012,170.1663 76.3365827,166.9923 76.7122372,165.3243 L67.8062215,165.3243 L67.8062215,159.7293 L82.9015199,159.7293 L82.9015199,175.5498 L77.5491953,175.5498 Z"/><path id="Fill-20" d="M150.407827,175.5498 L150.407827,145.9593 L161.153047,145.9593 C170.059062,145.9593 176.036476,151.6338 176.036476,160.7733 C176.036476,169.9143 170.059062,175.5498 161.110973,175.5498 L150.407827,175.5498 Z M160.860036,169.3308 C165.417476,169.3308 169.13946,166.6998 169.13946,160.7733 C169.13946,154.8498 165.417476,152.1783 160.860036,152.1783 L157.013335,152.1783 L157.013335,169.3308 L160.860036,169.3308 Z"/><polygon id="Fill-22" points="234.406 145.959 241.177 145.959 233.11 175.551 226.294 175.551 219.98 155.934 213.625 175.551 206.684 175.551 198.615 145.959 205.637 145.959 210.53 164.905 216.678 145.959 223.451 145.959 229.599 164.95"/><path id="Fill-24" d="M258.817945,145.33005 C267.137939,145.33005 274.203248,151.38255 274.203248,160.77255 C274.203248,170.12205 267.137939,176.17455 258.817945,176.17455 C250.457379,176.17455 243.389065,170.12205 243.389065,160.77255 C243.389065,151.38255 250.457379,145.33005 258.817945,145.33005 M258.817945,169.66305 C262.915583,169.66305 267.346803,166.91055 267.346803,160.73205 C267.346803,154.55505 262.915583,151.76055 258.817945,151.76055 C254.678232,151.76055 250.24551,154.55505 250.24551,160.73205 C250.24551,166.91055 254.678232,169.66305 258.817945,169.66305"/><path id="Fill-26" d="M288.422671,164.53125 L286.08009,164.53125 L286.08009,175.55175 L279.476084,175.55175 L279.476084,145.95825 L291.225053,145.95825 C297.076247,145.95825 300.838802,149.96475 300.838802,155.22225 C300.838802,159.23025 298.62244,162.27825 294.986105,163.56975 L301.005592,175.55175 L293.732922,175.55175 L288.422671,164.53125 Z M289.968864,158.85225 C292.688603,158.85225 294.15065,157.35075 294.15065,155.26425 C294.15065,153.05325 292.688603,151.67625 289.968864,151.67625 L286.08009,151.67625 L286.08009,158.85225 L289.968864,158.85225 Z"/><polygon id="Fill-28" points="316.406 163.907 313.058 167.621 313.058 175.55 306.454 175.55 306.454 145.958 313.058 145.958 313.058 158.393 323.888 145.958 332.583 145.958 321.046 158.771 332.628 175.55 324.388 175.55"/><path id="Fill-30" d="M351.080631,154.8897 C350.871767,153.5097 349.741798,151.1742 346.147537,151.1742 C343.677233,151.1742 342.088966,152.7192 342.088966,154.3482 C342.088966,155.7657 342.967997,156.8097 345.017568,157.1832 L348.988987,157.9347 C354.632819,158.9802 357.561421,162.6117 357.561421,166.8252 C357.561421,171.4572 353.671144,176.1747 346.605835,176.1747 C338.410558,176.1747 334.897437,170.8767 334.479709,166.6992 L340.54127,165.2412 C340.793709,167.9532 342.634416,170.3322 346.688479,170.3322 C349.2835,170.3322 350.871767,169.0782 350.871767,167.2437 C350.871767,165.7407 349.657652,164.6577 347.69373,164.2812 L343.638165,163.5297 C338.620924,162.5697 335.569107,159.2307 335.569107,154.8507 C335.569107,149.2542 340.502202,145.3302 346.186605,145.3302 C353.590003,145.3302 356.390882,149.7537 357.015971,153.2217 L351.080631,154.8897 Z"/><path id="Fill-32" d="M141.36357,150.3369 C138.792591,147.8394 135.417712,146.3349 131.861015,146.1024 C131.459816,146.0739 131.054109,146.0634 130.6469,146.0694 C125.891115,146.1324 121.862596,149.0739 118.918968,152.1864 C118.71912,152.3979 118.541811,152.6109 118.350979,152.8224 C117.807031,153.4254 117.311167,154.0179 116.855874,154.6104 C116.634989,154.8969 116.390062,155.1894 116.200732,155.4669 C115.209005,156.9309 114.164685,158.7549 112.555382,161.3214 C110.900999,163.9629 106.592994,170.0169 101.891303,170.0844 C101.661403,170.0874 101.431502,170.0814 101.204607,170.0664 C96.7703817,169.7739 93.2497482,166.0674 93.1881408,161.6259 C93.1565859,159.3414 94.0235963,157.1799 95.6253869,155.5344 C96.226434,154.9194 96.9101251,154.3974 97.6539209,153.9894 C98.8710414,153.3189 100.256455,152.9559 101.661403,152.9379 C101.829696,152.9349 101.997989,152.9394 102.16478,152.9514 C106.079099,153.2079 109.502062,157.0254 111.476502,159.7509 C111.925785,159.0264 112.372062,158.3049 112.753727,157.6809 C113.55913,156.3639 114.139141,155.4009 114.758219,154.4919 C114.86791,154.3284 115.015167,154.1289 115.171439,153.9204 C112.133146,150.3024 107.886748,146.8359 102.596031,146.4894 C102.257942,146.4654 101.916848,146.4564 101.571246,146.4609 C93.2602665,146.5749 86.5886435,153.4179 86.6998372,161.7144 C86.806523,169.5099 92.9882927,176.0169 100.774858,176.5284 C101.173052,176.5554 101.575753,176.5659 101.98146,176.5599 C104.068596,176.5329 106.175266,175.9419 108.242869,174.8079 C111.643293,172.9404 114.406607,169.8969 116.329958,167.2989 C117.840088,165.1854 119.162392,162.8199 120.072979,161.3064 C120.290858,160.9584 120.559827,160.5504 120.864858,160.1049 C122.875361,157.1724 126.65745,152.6004 130.735554,152.5464 C130.96846,152.5434 131.198361,152.5494 131.428261,152.5629 C133.480837,152.6979 135.353099,153.5334 136.839188,154.9794 C138.486057,156.5769 139.410167,158.7159 139.440219,161.0019 C139.471774,163.2894 138.606266,165.4509 137.004476,167.0949 C135.402685,168.7404 133.25845,169.6629 130.96846,169.6914 C130.800167,169.6929 130.633376,169.6899 130.466586,169.6794 C126.556774,169.4229 123.136816,165.6159 121.160874,162.8889 L120.955015,163.2399 C120.078989,164.7264 118.989591,166.5744 117.749931,168.3084 C117.673298,168.4194 117.553088,168.5694 117.452413,168.7014 C120.492209,172.3224 124.741612,175.7949 130.033832,176.1399 C130.370418,176.1639 130.711513,176.1729 131.055612,176.1684 C133.52291,176.1339 135.957151,175.4949 138.095376,174.3219 C139.405659,173.6019 140.601743,172.6884 141.652073,171.6129 C144.463471,168.7284 145.982617,164.9289 145.92702,160.9149 C145.872926,156.9009 144.253104,153.1434 141.36357,150.3369"/></g></g></g></svg>