<?xml version="1.0" encoding="iso-8859-1"?>
<!-- Generator: Adobe Illustrator 19.0.0, SVG Export Plug-In . SVG Version: 6.00 Build 0)  -->
<svg version="1.1" id="Capa_1" xmlns="http://www.w3.org/2000/svg" xmlns:xlink="http://www.w3.org/1999/xlink" x="0px" y="0px" viewBox="0 0 480 480" style="enable-background:new 0 0 480 480;" xml:space="preserve">
<g>
	<g>
		<g>
			<path d="M472,152H280V44c-0.022-19.873-16.127-35.978-36-36h-8c-19.873,0.022-35.978,16.127-36,36v108H8c-4.418,0-8,3.582-8,8v88     c0,4.418,3.582,8,8,8h49.24l32.192,209.216c0.6,3.902,3.956,6.782,7.904,6.784h288c3.948-0.002,7.304-2.882,7.904-6.784     L425.424,256H472c4.418,0,8-3.582,8-8v-88C480,155.582,476.418,152,472,152z M216,44c0-11.046,8.954-20,20-20h8     c11.046,0,20,8.954,20,20v144c0,11.046-8.954,20-20,20h-8c-11.046,0-20-8.954-20-20V44z M378.472,456H104.2L73.424,256H409.24     L378.472,456z M464,240H16v-72h184v20c0.022,19.873,16.127,35.978,36,36h8c19.873-0.022,35.978-16.127,36-36v-20h184V240z" />
			<path d="M144,440c13.255,0,24-10.745,24-24V296c0-13.255-10.745-24-24-24s-24,10.745-24,24v120C120,429.255,130.745,440,144,440z      M136,296c0-4.418,3.582-8,8-8s8,3.582,8,8v120c0,4.418-3.582,8-8,8s-8-3.582-8-8V296z" />
			<path d="M208,440c13.255,0,24-10.745,24-24V296c0-13.255-10.745-24-24-24s-24,10.745-24,24v120C184,429.255,194.745,440,208,440z      M200,296c0-4.418,3.582-8,8-8s8,3.582,8,8v120c0,4.418-3.582,8-8,8s-8-3.582-8-8V296z" />
			<path d="M272,440c13.255,0,24-10.745,24-24V296c0-13.255-10.745-24-24-24s-24,10.745-24,24v120C248,429.255,258.745,440,272,440z      M264,296c0-4.418,3.582-8,8-8s8,3.582,8,8v120c0,4.418-3.582,8-8,8s-8-3.582-8-8V296z" />
			<path d="M336,440c13.255,0,24-10.745,24-24V296c0-13.255-10.745-24-24-24s-24,10.745-24,24v120C312,429.255,322.745,440,336,440z      M328,296c0-4.418,3.582-8,8-8s8,3.582,8,8v120c0,4.418-3.582,8-8,8s-8-3.582-8-8V296z" />
			<path d="M240,192c6.627,0,12-5.373,12-12c0-6.627-5.373-12-12-12c-6.627,0-12,5.373-12,12C228,186.627,233.373,192,240,192z      M240,176c2.209,0,4,1.791,4,4c0,2.209-1.791,4-4,4c-2.209,0-4-1.791-4-4C236,177.791,237.791,176,240,176z" />
		</g>
	</g>
</g>
<g>
</g>
<g>
</g>
<g>
</g>
<g>
</g>
<g>
</g>
<g>
</g>
<g>
</g>
<g>
</g>
<g>
</g>
<g>
</g>
<g>
</g>
<g>
</g>
<g>
</g>
<g>
</g>
<g>
</g>
</svg>