<svg xmlns="http://www.w3.org/2000/svg" width="512" height="512" viewBox="0 0 512 512"><path d="m456 496a8 8 0 0 0 8-8v-464a8 8 0 0 0 -8-8h-400a8 8 0 0 0 -8 8v464a8 8 0 0 0 8 8zm-141.681-202.367.082.083a18.955 18.955 0 0 1 5.31 10.284h-31.411a18.823 18.823 0 0 1 5.3-10.284l.083-.083a8 8 0 0 0 2.317-5.633v-16h16v16a8 8 0 0 0 2.319 5.633zm-26.319 26.367h32v16h-32zm48-12.769a34.855 34.855 0 0 0 -8-22.312v-20.919a8 8 0 0 0 -8-8h-32a8 8 0 0 0 -8 8v20.917a35.134 35.134 0 0 0 -8 22.314v28.769h-16v-28.769a34.855 34.855 0 0 0 -8-22.312v-20.919a8 8 0 0 0 -8-8h-32a8 8 0 0 0 -8 8v20.917a35.134 35.134 0 0 0 -8 22.314v28.769h-16v-28.769a34.855 34.855 0 0 0 -8-22.312v-20.919a8 8 0 0 0 -8-8h-32a8 8 0 0 0 -8 8v20.917a35.134 35.134 0 0 0 -8 22.314v28.769h-16v-96h256v96h-16zm-101.681-13.6.082.083a18.955 18.955 0 0 1 5.31 10.286h-31.411a18.823 18.823 0 0 1 5.3-10.284l.083-.083a8 8 0 0 0 2.317-5.633v-16h16v16a8 8 0 0 0 2.319 5.633zm-26.319 26.369h32v16h-32zm-53.681-26.367.082.083a18.955 18.955 0 0 1 5.31 10.284h-31.411a18.823 18.823 0 0 1 5.3-10.284l.083-.083a8 8 0 0 0 2.317-5.633v-16h16v16a8 8 0 0 0 2.319 5.633zm-26.319 26.367h32v16h-32zm320 16h-80v-48h80zm0-64h-80v-112h80zm-96-48h-16v-28.769a34.855 34.855 0 0 0 -8-22.312v-20.919a8 8 0 0 0 -8-8h-32a8 8 0 0 0 -8 8v20.917a35.134 35.134 0 0 0 -8 22.314v28.769h-16v-28.769a34.855 34.855 0 0 0 -8-22.312v-20.919a8 8 0 0 0 -8-8h-32a8 8 0 0 0 -8 8v20.917a35.134 35.134 0 0 0 -8 22.314v28.769h-16v-28.769a34.855 34.855 0 0 0 -8-22.312v-20.919a8 8 0 0 0 -8-8h-32a8 8 0 0 0 -8 8v20.917a35.134 35.134 0 0 0 -8 22.314v28.769h-16v-96h256zm-37.681-42.367.082.083a18.955 18.955 0 0 1 5.31 10.284h-31.411a18.823 18.823 0 0 1 5.3-10.284l.083-.083a8 8 0 0 0 2.317-5.633v-16h16v16a8 8 0 0 0 2.319 5.633zm-26.319 26.367h32v16h-32zm-53.681-26.367.082.083a18.955 18.955 0 0 1 5.31 10.284h-31.411a18.823 18.823 0 0 1 5.3-10.284l.083-.083a8 8 0 0 0 2.317-5.633v-16h16v16a8 8 0 0 0 2.319 5.633zm-26.319 26.367h32v16h-32zm-53.681-26.367.082.083a18.955 18.955 0 0 1 5.31 10.284h-31.411a18.823 18.823 0 0 1 5.3-10.284l.083-.083a8 8 0 0 0 2.317-5.633v-16h16v16a8 8 0 0 0 2.319 5.633zm-26.319 26.367h32v16h-32zm240 272v-128h80v128zm80-336h-80v-112h80zm-96-64h-52.686l48-48h4.686zm-27.313-48-48 48h-161.374l48-48zm-184 0-44.687 44.686v-44.686zm-76.687 0h16v56a8 8 0 0 0 8 8h264v16h-264a8 8 0 0 0 -8 8v224a8 8 0 0 0 8 8h264v128h-288z"/><path d="m328 368h-240a8 8 0 0 0 -8 8v80a8 8 0 0 0 8 8h240a8 8 0 0 0 8-8v-80a8 8 0 0 0 -8-8zm-232 80v-16h88v-16h-88v-32h224v32h-88v16h88v16z"/><path d="m200 416h16v16h-16z"/><path d="m392 128h32a8 8 0 0 0 8-8v-48a8 8 0 0 0 -8-8h-32a8 8 0 0 0 -8 8v48a8 8 0 0 0 8 8zm8-48h16v32h-16z"/><path d="m384 176h16v16h-16z"/><path d="m416 176h16v16h-16z"/><path d="m384 208h16v16h-16z"/><path d="m416 208h16v16h-16z"/><path d="m384 240h16v16h-16z"/><path d="m416 240h16v16h-16z"/><path d="m384 304h48v16h-48z"/></svg>